# xmcd
#
# Track frame offsets:
#	150
#	15110
#	29717
#	41198
#	57008
#	68977
#	83145
#	96716
#	109638
#	124074
#	136669
#	151892
#	172796
#	193870
#	206581
#
# Disc length: 2977 seconds
#
# Revision: 2
# Processed by: cddbd v1.5.2PL0 Copyright (c) Steve Scherf et al.
# Submitted via: audiograbber 1.83.01
#
DISCID=c60b9f0f
DTITLE=Twitty, Conway - cb90296
DYEAR=1900
DGENRE=Country
TTITLE0=Conway Twitty - The Games That Daddies Play
TTITLE1=Conway Twitty - Between Blue Eyes And Jeans
TTITLE2=Conway Twitty - Boogie Grass Band
TTITLE3=Conway Twitty - Ain't She Something Else
TTITLE4=Conway Twitty - Desperado Love
TTITLE5=Conway Twitty - Image Of Me
TTITLE6=Conway Twitty - I've Already Loved You In My Mind
TTITLE7=Conway Twitty - Your Love Had Taken Me That High
TTITLE8=Conway Twitty - How Much More Can She Stand
TTITLE9=Conway Twitty - Don't Call Him A Cowboy
TTITLE10=Conway Twitty - Baby's Gone
TTITLE11=Conway Twitty - Fallin' For You For Years
TTITLE12=Conway Twitty - Rest Your Love On Me
TTITLE13=Conway Twitty - I'm Not Through Loving You Yet
TTITLE14=Conway Twitty - The Rose
EXTD=
EXTT0=
EXTT1=
EXTT2=
EXTT3=
EXTT4=
EXTT5=
EXTT6=
EXTT7=
EXTT8=
EXTT9=
EXTT10=
EXTT11=
EXTT12=
EXTT13=
EXTT14=
PLAYORDER=
